<svg xmlns="http://www.w3.org/2000/svg" viewBox="0 0 128 128" role="img" aria-labelledby="t d">
<title id="t">Blessings Wallet</title>
<desc id="d">A simple wallet with a heart and light sparkle.</desc>
<defs>
  <linearGradient id="g" x1="0" y1="0" x2="1" y2="1">
    <stop offset="0" stop-color="#08BFA9"/>
    <stop offset="1" stop-color="#87CF7C"/>
  </linearGradient>
</defs>
<rect width="128" height="128" rx="30" fill="url(#g)"/>
<path d="M29 39h62a12 12 0 0 1 12 12v39a12 12 0 0 1-12 12H37a12 12 0 0 1-12-12V49a10 10 0 0 1 4-10Z" fill="#fff" opacity=".97"/>
<path d="M78 56h27v25H78a12.5 12.5 0 1 1 0-25Z" fill="#E8F8F1"/>
<circle cx="82" cy="68.5" r="4.5" fill="#17B8A5"/>
<path d="M52 59c-7-9-21-2-17 9 3 9 17 17 17 17s14-8 17-17c4-11-10-18-17-9Z" fill="#59BE95"/>
<path d="M93 27v13M86.5 33.5h13" stroke="#fff" stroke-width="5" stroke-linecap="round"/>
</svg>